<?xml version="1.0" encoding="utf-8"?>
<!-- Generator: Adobe Illustrator 21.1.0, SVG Export Plug-In . SVG Version: 6.00 Build 0)  -->
<svg version="1.1" id="Capa_1" xmlns="http://www.w3.org/2000/svg" xmlns:xlink="http://www.w3.org/1999/xlink" x="0px" y="0px"
	 width="1200px" height="800px" viewBox="0 0 1200 800" style="enable-background:new 0 0 1200 800;" xml:space="preserve">
<style type="text/css">
	.st0{fill:#316386;}
	.st1{clip-path:url(#SVGID_2_);}
	
		.st2{opacity:0.2;fill:none;stroke:#9C9B9B;stroke-width:10;stroke-linecap:round;stroke-linejoin:round;stroke-miterlimit:10;enable-background:new    ;}
	.st3{fill:#73D0D8;}
	.st4{fill:#FFFFFF;}
	.st5{fill:#ECECEC;}
	.st6{fill:#D2131B;}
	.st7{fill:#FF5720;}
	.st8{fill:#FCAE00;}
	.st9{fill:#3C3C3B;}
	
		.st10{opacity:0.15;fill:none;stroke:#FFFFFF;stroke-width:8;stroke-linecap:round;stroke-linejoin:round;stroke-miterlimit:10;enable-background:new    ;}
	
		.st11{opacity:0.1;fill:none;stroke:#FFFFFF;stroke-width:8;stroke-linecap:round;stroke-linejoin:round;stroke-miterlimit:10;enable-background:new    ;}
	.st12{fill:none;}
	.st13{fill:#FE2020;}
	.st14{fill:#F5F5F5;}
	
		.st15{opacity:0.2;fill:none;stroke:#9C9B9B;stroke-width:12;stroke-linecap:round;stroke-linejoin:round;stroke-miterlimit:10;enable-background:new    ;}
	.st16{fill:#BE652B;}
	
		.st17{opacity:0.1;fill:none;stroke:#FFFFFF;stroke-width:10;stroke-linecap:round;stroke-linejoin:round;stroke-miterlimit:10;enable-background:new    ;}
	.st18{fill:#72350E;}
	.st19{opacity:0.1;fill:#86191E;enable-background:new    ;}
	
		.st20{opacity:0.5;fill:none;stroke:#FFFFFF;stroke-width:8;stroke-linecap:round;stroke-linejoin:round;stroke-miterlimit:10;enable-background:new    ;}
</style>
<rect class="st0" width="1200" height="800"/>
<g>
	<g>
		<defs>
			<rect id="SVGID_1_" width="1200" height="800"/>
		</defs>
		<clipPath id="SVGID_2_">
			<use xlink:href="#SVGID_1_"  style="overflow:visible;"/>
		</clipPath>
		<g class="st1">
			<g>
				<path class="st2" d="M1273.4,549.6c-12.4,0-24.4-3.7-34.5-10.7c-9.9-6.9-17.6-16.4-22-27.6c-0.8-1.9-2.6-3.1-4.6-3.1l0,0
					c-2,0-3.9,1.2-4.6,3.1c-4.5,11.2-12.1,20.7-22,27.6c-10.2,7-22.1,10.7-34.5,10.7s-24.4-3.7-34.5-10.7
					c-9.9-6.9-17.6-16.4-22-27.6c-0.8-1.9-2.6-3.1-4.6-3.1s-3.9,1.2-4.6,3.1c-4.5,11.2-12.1,20.7-22,27.6
					c-10.2,7-22.1,10.7-34.5,10.7s-24.4-3.7-34.5-10.7c-9.9-6.9-17.6-16.4-22-27.6c-0.8-1.9-2.6-3.1-4.6-3.1s-3.9,1.2-4.6,3.1
					c-4.5,11.2-12.1,20.7-22,27.6c-10.2,7-22.1,10.7-34.5,10.7s-24.4-3.7-34.5-10.7c-9.9-6.9-17.6-16.4-22-27.6
					c-0.8-1.9-2.6-3.1-4.6-3.1s-3.9,1.2-4.6,3.1c-4.5,11.2-12.1,20.7-22,27.6c-10.2,7-22.1,10.7-34.5,10.7s-24.4-3.7-34.5-10.7
					c-9.9-6.9-17.6-16.4-22-27.6c-0.8-1.9-2.6-3.1-4.6-3.1s-3.9,1.2-4.6,3.1c-4.5,11.2-12.1,20.7-22,27.6
					c-10.2,7-22.1,10.7-34.5,10.7s-24.4-3.7-34.5-10.7c-9.9-6.9-17.6-16.4-22-27.6c-0.8-1.9-2.6-3.1-4.6-3.1s-3.9,1.2-4.6,3.1
					c-4.5,11.2-12.1,20.7-22,27.6c-10.2,7-22.1,10.7-34.5,10.7s-24.4-3.7-34.5-10.7c-9.9-6.9-17.6-16.4-22-27.6
					c-0.8-1.9-2.6-3.1-4.6-3.1s-3.9,1.2-4.6,3.1c-4.5,11.2-12.1,20.7-22,27.6c-10.2,7-22.1,10.7-34.5,10.7s-24.4-3.7-34.5-10.7
					c-9.9-6.9-17.6-16.4-22-27.6c-0.8-1.9-2.6-3.1-4.6-3.1s-3.9,1.2-4.6,3.1c-4.5,11.2-12.1,20.7-22,27.6
					c-10.2,7-22.1,10.7-34.5,10.7s-24.4-3.7-34.5-10.7c-9.9-6.9-17.6-16.4-22-27.6c-0.8-1.9-2.6-3.1-4.6-3.1s-3.9,1.2-4.6,3.1
					c-4.5,11.2-12.1,20.7-22,27.6c-10.2,7-22.1,10.7-34.5,10.7s-24.4-3.7-34.5-10.7c-9.9-6.9-17.6-16.4-22-27.6
					c-0.8-1.9-2.6-3.1-4.6-3.1s-3.9,1.2-4.6,3.1c-4.5,11.2-12.1,20.7-22,27.6c-10.2,7-22.1,10.7-34.5,10.7s-24.4-3.7-34.5-10.7
					C7,532-0.7,522.5-5.1,511.3c-0.8-1.9-2.6-3.1-4.6-3.1s-3.9,1.2-4.6,3.1c-4.5,11.2-12.1,20.7-22,27.6
					c-10.2,7-22.1,10.7-34.5,10.7"/>
				<path class="st3" d="M-12.2,513.2c9.7,24.3,33.5,41.4,61.2,41.4c27.8,0,51.5-17.2,61.2-41.4c9.7,24.3,33.5,41.4,61.2,41.4
					c27.8,0,51.5-17.2,61.2-41.4c9.7,24.3,33.5,41.4,61.2,41.4c27.8,0,51.5-17.2,61.2-41.4c9.7,24.3,33.5,41.4,61.2,41.4
					c27.8,0,51.5-17.2,61.2-41.4c9.7,24.3,33.5,41.4,61.2,41.4c27.8,0,51.5-17.2,61.2-41.4c9.7,24.3,33.5,41.4,61.2,41.4
					c27.8,0,51.5-17.2,61.2-41.4c9.7,24.3,33.5,41.4,61.2,41.4c27.8,0,51.5-17.2,61.2-41.4c9.7,24.3,33.5,41.4,61.2,41.4
					c27.8,0,51.5-17.2,61.2-41.4c9.7,24.3,33.5,41.4,61.2,41.4c27.8,0,51.5-17.2,61.2-41.4c9.7,24.3,33.5,41.4,61.2,41.4
					c27.8,0,51.5-17.2,61.2-41.4c9.7,24.3,33.5,41.4,61.2,41.4v34.1H-73.4v-34.1C-45.7,554.6-21.9,537.4-12.2,513.2z"/>
			</g>
			<g>
				<path class="st2" d="M1273.4,297.5c-12.4,0-24.4-3.7-34.5-10.7c-9.9-6.9-17.6-16.4-22-27.6c-0.8-1.9-2.6-3.1-4.6-3.1
					s-3.9,1.2-4.6,3.1c-4.5,11.2-12.1,20.7-22,27.6c-10.2,7-22.1,10.7-34.5,10.7s-24.4-3.7-34.5-10.7c-9.9-6.9-17.6-16.4-22-27.6
					c-0.8-1.9-2.6-3.1-4.6-3.1s-3.9,1.2-4.6,3.1c-4.5,11.2-12.1,20.7-22,27.6c-10.2,7-22.1,10.7-34.5,10.7s-24.4-3.7-34.5-10.7
					c-9.9-6.9-17.6-16.4-22-27.6c-0.8-1.9-2.6-3.1-4.6-3.1s-3.9,1.2-4.6,3.1c-4.5,11.2-12.1,20.7-22,27.6
					c-10.2,7-22.1,10.7-34.5,10.7s-24.4-3.7-34.5-10.7c-9.9-6.9-17.6-16.4-22-27.6c-0.8-1.9-2.6-3.1-4.6-3.1s-3.9,1.2-4.6,3.1
					c-4.5,11.2-12.1,20.7-22,27.6c-10.2,7-22.1,10.7-34.5,10.7s-24.4-3.7-34.5-10.7c-9.9-6.9-17.6-16.4-22-27.6
					c-0.8-1.9-2.6-3.1-4.6-3.1l0,0c-2,0-3.9,1.2-4.6,3.1c-4.5,11.2-12.1,20.7-22,27.6c-10.2,7-22.1,10.7-34.5,10.7
					s-24.4-3.7-34.5-10.7c-9.9-6.9-17.6-16.4-22-27.6c-0.8-1.9-2.6-3.1-4.6-3.1s-3.9,1.2-4.6,3.1c-4.5,11.2-12.1,20.7-22,27.6
					c-10.2,7-22.1,10.7-34.5,10.7s-24.4-3.7-34.5-10.7c-9.9-6.9-17.6-16.4-22-27.6c-0.8-1.9-2.6-3.1-4.6-3.1s-3.9,1.2-4.6,3.1
					c-4.5,11.2-12.1,20.7-22,27.6c-10.2,7-22.1,10.7-34.5,10.7s-24.4-3.7-34.5-10.7c-9.9-6.9-17.6-16.4-22-27.6
					c-0.8-1.9-2.6-3.1-4.6-3.1s-3.9,1.2-4.6,3.1c-4.5,11.2-12.1,20.7-22,27.6c-10.2,7-22.1,10.7-34.5,10.7s-24.4-3.7-34.5-10.7
					c-9.9-6.9-17.6-16.4-22-27.6c-0.8-1.9-2.6-3.1-4.6-3.1s-3.9,1.2-4.6,3.1c-4.5,11.2-12.1,20.7-22,27.6
					c-10.2,7-22.1,10.7-34.5,10.7s-24.4-3.7-34.5-10.7c-9.9-6.9-17.6-16.4-22-27.6c-0.8-1.9-2.6-3.1-4.6-3.1s-3.9,1.2-4.6,3.1
					c-4.5,11.2-12.1,20.7-22,27.6c-10.2,7-22.1,10.7-34.5,10.7s-24.4-3.7-34.5-10.7c-9.9-6.9-17.6-16.4-22-27.6
					c-0.8-1.9-2.6-3.1-4.6-3.1s-3.9,1.2-4.6,3.1c-4.5,11.2-12.1,20.7-22,27.6c-10.2,7-22.1,10.7-34.5,10.7"/>
				<path class="st3" d="M1212.2,261c-9.7,24.3-33.5,41.4-61.2,41.4c-27.8,0-51.5-17.2-61.2-41.4c-9.7,24.3-33.5,41.4-61.2,41.4
					S977,285.3,967.3,261c-9.7,24.3-33.5,41.4-61.2,41.4s-51.5-17.2-61.2-41.4c-9.7,24.3-33.5,41.4-61.2,41.4s-51.5-17.2-61.2-41.4
					c-9.7,24.3-33.5,41.4-61.2,41.4c-27.8,0-51.5-17.2-61.2-41.4c-9.7,24.3-33.5,41.4-61.2,41.4c-27.8,0-51.5-17.2-61.2-41.4
					c-9.7,24.3-33.5,41.4-61.2,41.4c-27.8,0-51.5-17.2-61.2-41.4c-9.7,24.3-33.5,41.4-61.2,41.4c-27.8,0-51.5-17.2-61.2-41.4
					c-9.7,24.3-33.5,41.4-61.2,41.4c-27.8,0-51.5-17.2-61.2-41.4c-9.7,24.3-33.5,41.4-61.2,41.4c-27.8,0-51.5-17.2-61.2-41.4
					c-9.7,24.3-33.5,41.4-61.2,41.4v34.1h1346.8v-34.1C1245.7,302.5,1221.9,285.3,1212.2,261z"/>
			</g>
		</g>
	</g>
</g>
<g>
	<g>
		<rect x="1040.5" y="1060.5" class="st4" width="10" height="67.2"/>
		<g>
			<circle class="st5" cx="1045.5" cy="1027.7" r="42.2"/>
			<path class="st6" d="M1045.5,995.5c17.7,0,32.2,14.4,32.2,32.2c0,17.7-14.4,32.2-32.2,32.2c-17.7,0-32.2-14.4-32.2-32.2
				C1013.4,1009.9,1027.8,995.5,1045.5,995.5"/>
			<path class="st5" d="M1045.5,1005.5c12.2,0,22.2,9.9,22.2,22.2s-9.9,22.2-22.2,22.2c-12.2,0-22.2-9.9-22.2-22.2
				S1033.3,1005.5,1045.5,1005.5"/>
			<path class="st6" d="M1045.5,1015.5c6.7,0,12.2,5.5,12.2,12.2s-5.5,12.2-12.2,12.2s-12.2-5.5-12.2-12.2
				S1038.8,1015.5,1045.5,1015.5"/>
		</g>
	</g>
	<g>
		<g>
			<path class="st7" d="M864.9,1013.2c-1.5,0-2.5,1.4-2.1,2.8c1.7,5.3,6.7,9.2,12.6,9.2h10.9v-12L864.9,1013.2L864.9,1013.2z"/>
			<rect x="918.1" y="1060.5" class="st4" width="10" height="67.2"/>
			<path class="st8" d="M921.3,1008.5c0,12.7-10.3,23-23,23s-23-10.3-23-23s10.3-23,23-23S921.3,995.8,921.3,1008.5"/>
			<path class="st9" d="M898.3,1008.5c0,2.6-2.1,4.7-4.7,4.7c-2.6,0-4.7-2.1-4.7-4.7s2.1-4.7,4.7-4.7S898.3,1005.9,898.3,1008.5"/>
			<path class="st8" d="M928.2,1023.8h-25c-9.9,0-18,8.1-18,18v5c0,12.7,10.3,23,23,23h20.3c17.9,0,32.4-14.5,32.4-32.4v-8.9v-4.7
				v-1.9c0-1.4-1.3-2.5-2.7-2.1C948.4,1022.5,938.4,1023.8,928.2,1023.8"/>
		</g>
		<path class="st10" d="M908.3,1065.8c-10.5,0-19-8.5-19-19v-5c0-3.4,1.3-6.7,3.5-9.3l3.8-4.3l-5.3-2.1c-7.3-2.9-12-9.8-12-17.7
			c0-10.5,8.5-19,19-19 M928.2,1027.8c9.7,0,19.3-1.2,28.7-3.5"/>
		<path class="st11" d="M867.8,1017.2h4.9"/>
	</g>
	<g>
		<rect x="795.7" y="1060.5" class="st4" width="10" height="67.2"/>
		<g>
			<circle class="st5" cx="800.7" cy="1027.7" r="42.2"/>
			<path class="st6" d="M800.7,995.5c17.7,0,32.2,14.4,32.2,32.2c0,17.7-14.4,32.2-32.2,32.2c-17.7,0-32.2-14.4-32.2-32.2
				S782.9,995.5,800.7,995.5"/>
			<path class="st5" d="M800.7,1005.5c12.2,0,22.2,9.9,22.2,22.2s-9.9,22.2-22.2,22.2c-12.2,0-22.2-9.9-22.2-22.2
				S788.4,1005.5,800.7,1005.5"/>
			<path class="st6" d="M800.7,1015.5c6.7,0,12.2,5.5,12.2,12.2s-5.5,12.2-12.2,12.2s-12.2-5.5-12.2-12.2S794,1015.5,800.7,1015.5"
				/>
		</g>
	</g>
	<g>
		<g>
			<path class="st7" d="M620.1,1013.2c-1.5,0-2.5,1.4-2.1,2.8c1.7,5.3,6.7,9.2,12.6,9.2h10.9v-12L620.1,1013.2L620.1,1013.2z"/>
			<rect x="673.2" y="1060.5" class="st4" width="10" height="67.2"/>
			<path class="st8" d="M676.4,1008.5c0,12.7-10.3,23-23,23s-23-10.3-23-23s10.3-23,23-23C666.1,985.5,676.4,995.8,676.4,1008.5"/>
			<path class="st9" d="M653.4,1008.5c0,2.6-2.1,4.7-4.7,4.7c-2.6,0-4.7-2.1-4.7-4.7s2.1-4.7,4.7-4.7
				C651.3,1003.8,653.4,1005.9,653.4,1008.5"/>
			<path class="st8" d="M683.4,1023.8h-25c-9.9,0-18,8.1-18,18v5c0,12.7,10.3,23,23,23h20.3c17.9,0,32.4-14.5,32.4-32.4v-8.9v-4.7
				v-1.9c0-1.4-1.3-2.5-2.7-2.1C703.6,1022.5,693.5,1023.8,683.4,1023.8"/>
		</g>
		<path class="st10" d="M663.4,1065.8c-10.5,0-19-8.5-19-19v-5c0-3.4,1.3-6.7,3.5-9.3l3.8-4.3l-5.3-2.1c-7.3-2.9-12-9.8-12-17.7
			c0-10.5,8.5-19,19-19 M683.4,1027.8c9.7,0,19.3-1.2,28.7-3.5"/>
		<path class="st11" d="M623,1017.2h4.9"/>
	</g>
	<g>
		<rect x="550.8" y="1060.5" class="st4" width="10" height="67.2"/>
		<g>
			<circle class="st5" cx="555.8" cy="1027.7" r="42.2"/>
			<path class="st6" d="M555.8,995.5c17.7,0,32.2,14.4,32.2,32.2c0,17.7-14.4,32.2-32.2,32.2c-17.7,0-32.2-14.4-32.2-32.2
				S538,995.5,555.8,995.5"/>
			<path class="st5" d="M555.8,1005.5c12.2,0,22.2,9.9,22.2,22.2s-9.9,22.2-22.2,22.2c-12.2,0-22.2-9.9-22.2-22.2
				S543.6,1005.5,555.8,1005.5"/>
			<path class="st6" d="M555.8,1015.5c6.7,0,12.2,5.5,12.2,12.2s-5.5,12.2-12.2,12.2s-12.2-5.5-12.2-12.2S549.1,1015.5,555.8,1015.5
				"/>
		</g>
	</g>
	<g>
		<g>
			<path class="st7" d="M375.2,1013.2c-1.5,0-2.5,1.4-2.1,2.8c1.7,5.3,6.7,9.2,12.6,9.2h10.9v-12L375.2,1013.2L375.2,1013.2z"/>
			<rect x="428.3" y="1060.5" class="st4" width="10" height="67.2"/>
			<path class="st8" d="M431.5,1008.5c0,12.7-10.3,23-23,23s-23-10.3-23-23s10.3-23,23-23S431.5,995.8,431.5,1008.5"/>
			<path class="st9" d="M408.5,1008.5c0,2.6-2.1,4.7-4.7,4.7s-4.7-2.1-4.7-4.7s2.1-4.7,4.7-4.7S408.5,1005.9,408.5,1008.5"/>
			<path class="st8" d="M438.5,1023.8h-25c-9.9,0-18,8.1-18,18v5c0,12.7,10.3,23,23,23h20.3c17.9,0,32.4-14.5,32.4-32.4v-8.9v-4.7
				v-1.9c0-1.4-1.3-2.5-2.7-2.1C458.7,1022.5,448.6,1023.8,438.5,1023.8"/>
		</g>
		<path class="st10" d="M418.5,1065.8c-10.5,0-19-8.5-19-19v-5c0-3.4,1.3-6.7,3.5-9.3l3.8-4.3l-5.3-2.1c-7.3-2.9-12-9.8-12-17.7
			c0-10.5,8.5-19,19-19 M438.5,1027.8c9.7,0,19.3-1.2,28.7-3.5"/>
		<path class="st11" d="M378.1,1017.2h4.9"/>
	</g>
	<g>
		<rect x="305.9" y="1060.5" class="st4" width="10" height="67.2"/>
		<g>
			<circle class="st5" cx="310.9" cy="1027.7" r="42.2"/>
			<path class="st6" d="M310.9,995.5c17.7,0,32.2,14.4,32.2,32.2c0,17.7-14.4,32.2-32.2,32.2c-17.7,0-32.2-14.4-32.2-32.2
				C278.7,1009.9,293.2,995.5,310.9,995.5"/>
			<path class="st5" d="M310.9,1005.5c12.2,0,22.2,9.9,22.2,22.2s-9.9,22.2-22.2,22.2c-12.2,0-22.2-9.9-22.2-22.2
				S298.7,1005.5,310.9,1005.5"/>
			<path class="st6" d="M310.9,1015.5c6.7,0,12.2,5.5,12.2,12.2s-5.5,12.2-12.2,12.2s-12.2-5.5-12.2-12.2S304.2,1015.5,310.9,1015.5
				"/>
		</g>
	</g>
	<g>
		<g>
			<path class="st7" d="M130.3,1013.2c-1.5,0-2.5,1.4-2.1,2.8c1.7,5.3,6.7,9.2,12.6,9.2h10.9v-12L130.3,1013.2L130.3,1013.2z"/>
			<rect x="183.5" y="1060.5" class="st4" width="10" height="67.2"/>
			<path class="st8" d="M186.6,1008.5c0,12.7-10.3,23-23,23s-23-10.3-23-23s10.3-23,23-23S186.6,995.8,186.6,1008.5"/>
			<path class="st9" d="M163.6,1008.5c0,2.6-2.1,4.7-4.7,4.7c-2.6,0-4.7-2.1-4.7-4.7s2.1-4.7,4.7-4.7S163.6,1005.9,163.6,1008.5"/>
			<path class="st8" d="M193.6,1023.8h-25c-9.9,0-18,8.1-18,18v5c0,12.7,10.3,23,23,23h20.3c17.9,0,32.4-14.5,32.4-32.4v-8.9v-4.7
				v-1.9c0-1.4-1.3-2.5-2.7-2.1C213.8,1022.5,203.7,1023.8,193.6,1023.8"/>
		</g>
		<path class="st10" d="M173.6,1065.8c-10.5,0-19-8.5-19-19v-5c0-3.4,1.3-6.7,3.5-9.3l3.8-4.3l-5.3-2.1c-7.3-2.9-12-9.8-12-17.7
			c0-10.5,8.5-19,19-19 M193.6,1027.8c9.7,0,19.3-1.2,28.7-3.5"/>
		<path class="st11" d="M133.2,1017.2h4.9"/>
	</g>
</g>
<rect x="166.5" y="495.8" class="st12" width="10" height="67.2"/>
<g>
	<rect y="663.2" class="st13" width="44.4" height="136.8"/>
	<rect x="44.5" y="663.2" class="st14" width="44.4" height="136.8"/>
	<rect x="88.9" y="663.2" class="st13" width="44.4" height="136.8"/>
	<rect x="133.4" y="663.2" class="st14" width="44.4" height="136.8"/>
	<rect x="177.8" y="663.2" class="st13" width="44.4" height="136.8"/>
	<rect x="222.2" y="663.2" class="st14" width="44.4" height="136.8"/>
	<rect x="266.7" y="663.2" class="st13" width="44.4" height="136.8"/>
	<rect x="311.1" y="663.2" class="st14" width="44.4" height="136.8"/>
	<rect x="355.6" y="663.2" class="st13" width="44.4" height="136.8"/>
	<rect x="400" y="663.2" class="st14" width="44.4" height="136.8"/>
	<rect x="444.5" y="663.2" class="st13" width="44.4" height="136.8"/>
	<rect x="488.9" y="663.2" class="st14" width="44.4" height="136.8"/>
	<rect x="533.3" y="663.2" class="st13" width="44.4" height="136.8"/>
	<rect x="577.8" y="663.2" class="st14" width="44.4" height="136.8"/>
	<rect x="622.2" y="663.2" class="st13" width="44.4" height="136.8"/>
	<rect x="666.7" y="663.2" class="st14" width="44.4" height="136.8"/>
	<rect x="711.1" y="663.2" class="st13" width="44.4" height="136.8"/>
	<rect x="755.6" y="663.2" class="st14" width="44.4" height="136.8"/>
	<rect x="800" y="663.2" class="st13" width="44.4" height="136.8"/>
	<rect x="844.5" y="663.2" class="st14" width="44.4" height="136.8"/>
	<rect x="888.9" y="663.2" class="st13" width="44.4" height="136.8"/>
	<rect x="933.3" y="663.2" class="st14" width="44.4" height="136.8"/>
	<rect x="977.8" y="663.2" class="st13" width="44.4" height="136.8"/>
	<rect x="1022.2" y="663.2" class="st14" width="44.4" height="136.8"/>
	<rect x="1066.7" y="663.2" class="st13" width="44.4" height="136.8"/>
	<rect x="1111.1" y="663.2" class="st14" width="44.4" height="136.8"/>
	<rect x="1155.6" y="663.2" class="st13" width="44.4" height="136.8"/>
</g>
<path class="st15" d="M6,669.2h1188"/>
<g>
	<rect y="629.8" class="st16" width="1200" height="33.3"/>
	<path class="st17" d="M5,634.8h1190"/>
</g>
<g>
	<rect y="588.7" class="st18" width="1200" height="41.1"/>
	<path class="st19" d="M5,601.5"/>
</g>
<g>
	<rect y="336.6" class="st16" width="1200" height="33.3"/>
	<path class="st17" d="M5,341.6h1190"/>
</g>
<g>
	<circle class="st5" cx="1265.7" cy="1044.4" r="25.4"/>
	<path class="st20" d="M1244.3,1044.4c0-11.8,9.6-21.4,21.4-21.4"/>
</g>
<rect x="166.5" y="252.7" class="st12" width="10" height="67.2"/>
<rect x="288.9" y="252.7" class="st12" width="10" height="67.2"/>
<rect x="411.3" y="252.7" class="st12" width="10" height="67.2"/>
<rect x="533.8" y="252.7" class="st12" width="10" height="67.2"/>
<rect x="656.2" y="252.7" class="st12" width="10" height="67.2"/>
<rect x="778.7" y="252.7" class="st12" width="10" height="67.2"/>
<rect x="901.1" y="252.7" class="st12" width="10" height="67.2"/>
<g>
	<g>
		<rect x="165.5" y="904.4" class="st4" width="10" height="67.2"/>
		<g>
			<circle class="st5" cx="170.5" cy="871.5" r="42.2"/>
			<path class="st6" d="M170.5,839.4c17.7,0,32.2,14.4,32.2,32.2s-14.4,32.2-32.2,32.2c-17.7,0-32.2-14.4-32.2-32.2
				S152.7,839.4,170.5,839.4"/>
			<path class="st5" d="M170.5,849.4c12.2,0,22.2,9.9,22.2,22.2c0,12.2-9.9,22.2-22.2,22.2c-12.2,0-22.2-9.9-22.2-22.2
				C148.3,859.3,158.2,849.4,170.5,849.4"/>
			<path class="st6" d="M170.5,859.4c6.7,0,12.2,5.5,12.2,12.2s-5.5,12.2-12.2,12.2s-12.2-5.5-12.2-12.2
				C158.3,864.8,163.7,859.4,170.5,859.4"/>
		</g>
	</g>
	<g>
		<g>
			<path class="st7" d="M351.1,857.1c1.5,0,2.5,1.4,2.1,2.8c-1.7,5.3-6.7,9.2-12.6,9.2h-10.9v-12H351.1z"/>
			<rect x="287.9" y="904.4" class="st4" width="10" height="67.2"/>
			<path class="st8" d="M294.7,852.4c0,12.7,10.3,23,23,23s23-10.3,23-23s-10.3-23-23-23S294.7,839.6,294.7,852.4"/>
			<path class="st9" d="M317.7,852.4c0,2.6,2.1,4.7,4.7,4.7s4.7-2.1,4.7-4.7c0-2.6-2.1-4.7-4.7-4.7
				C319.8,847.6,317.7,849.7,317.7,852.4"/>
			<path class="st8" d="M287.8,867.7h25c9.9,0,18,8.1,18,18v5c0,12.7-10.3,23-23,23h-20.3c-17.9,0-32.4-14.5-32.4-32.4v-8.9v-4.7
				v-1.9c0-1.4,1.3-2.5,2.7-2.1C267.6,866.4,277.6,867.7,287.8,867.7"/>
		</g>
		<path class="st10" d="M317.7,833.4c10.5,0,19,8.5,19,19c0,7.9-4.7,14.8-12,17.7l-5.3,2.1l3.8,4.3c2.3,2.6,3.5,5.9,3.5,9.3v5
			c0,10.5-8.5,19-19,19 M259.1,868.2c9.4,2.3,19,3.5,28.7,3.5"/>
		<path class="st11" d="M343.3,861.1h4.9"/>
	</g>
	<g>
		<rect x="410.3" y="904.4" class="st4" width="10" height="67.2"/>
		<g>
			<circle class="st5" cx="415.3" cy="871.5" r="42.2"/>
			<path class="st6" d="M415.3,839.4c17.7,0,32.2,14.4,32.2,32.2s-14.4,32.2-32.2,32.2c-17.7,0-32.2-14.4-32.2-32.2
				S397.6,839.4,415.3,839.4"/>
			<path class="st5" d="M415.3,849.4c12.2,0,22.2,9.9,22.2,22.2c0,12.2-9.9,22.2-22.2,22.2c-12.2,0-22.2-9.9-22.2-22.2
				C393.2,859.3,403.1,849.4,415.3,849.4"/>
			<path class="st6" d="M415.3,859.4c6.7,0,12.2,5.5,12.2,12.2s-5.5,12.2-12.2,12.2s-12.2-5.5-12.2-12.2
				C403.2,864.8,408.6,859.4,415.3,859.4"/>
		</g>
	</g>
	<g>
		<g>
			<path class="st7" d="M595.9,857.1c1.5,0,2.5,1.4,2.1,2.8c-1.7,5.3-6.7,9.2-12.6,9.2h-10.9v-12H595.9z"/>
			<rect x="532.8" y="904.4" class="st4" width="10" height="67.2"/>
			<path class="st8" d="M539.6,852.4c0,12.7,10.3,23,23,23s23-10.3,23-23s-10.3-23-23-23C549.9,829.4,539.6,839.6,539.6,852.4"/>
			<path class="st9" d="M562.6,852.4c0,2.6,2.1,4.7,4.7,4.7c2.6,0,4.7-2.1,4.7-4.7c0-2.6-2.1-4.7-4.7-4.7
				C564.7,847.6,562.6,849.7,562.6,852.4"/>
			<path class="st8" d="M532.6,867.7h25c9.9,0,18,8.1,18,18v5c0,12.7-10.3,23-23,23h-20.3c-17.9,0-32.4-14.5-32.4-32.4v-8.9v-4.7
				v-1.9c0-1.4,1.3-2.5,2.7-2.1C512.4,866.4,522.5,867.7,532.6,867.7"/>
		</g>
		<path class="st10" d="M562.6,833.4c10.5,0,19,8.5,19,19c0,7.9-4.7,14.8-12,17.7l-5.3,2.1l3.8,4.3c2.3,2.6,3.5,5.9,3.5,9.3v5
			c0,10.5-8.5,19-19,19 M503.9,868.2c9.4,2.3,19,3.5,28.7,3.5"/>
		<path class="st11" d="M588.2,861.1h4.9"/>
	</g>
	<g>
		<rect x="655.2" y="904.4" class="st4" width="10" height="67.2"/>
		<g>
			<circle class="st5" cx="660.2" cy="871.5" r="42.2"/>
			<path class="st6" d="M660.2,839.4c17.7,0,32.2,14.4,32.2,32.2s-14.4,32.2-32.2,32.2c-17.7,0-32.2-14.4-32.2-32.2
				S642.5,839.4,660.2,839.4"/>
			<path class="st5" d="M660.2,849.4c12.2,0,22.2,9.9,22.2,22.2c0,12.2-9.9,22.2-22.2,22.2c-12.2,0-22.2-9.9-22.2-22.2
				C638.1,859.3,648,849.4,660.2,849.4"/>
			<path class="st6" d="M660.2,859.4c6.7,0,12.2,5.5,12.2,12.2s-5.5,12.2-12.2,12.2s-12.2-5.5-12.2-12.2
				C648.1,864.8,653.5,859.4,660.2,859.4"/>
		</g>
	</g>
	<g>
		<g>
			<path class="st7" d="M840.8,857.1c1.5,0,2.5,1.4,2.1,2.8c-1.7,5.3-6.7,9.2-12.6,9.2h-10.9v-12H840.8z"/>
			<rect x="777.7" y="904.4" class="st4" width="10" height="67.2"/>
			<path class="st8" d="M784.5,852.4c0,12.7,10.3,23,23,23s23-10.3,23-23s-10.3-23-23-23S784.5,839.6,784.5,852.4"/>
			<path class="st9" d="M807.5,852.4c0,2.6,2.1,4.7,4.7,4.7c2.6,0,4.7-2.1,4.7-4.7c0-2.6-2.1-4.7-4.7-4.7
				C809.6,847.6,807.5,849.7,807.5,852.4"/>
			<path class="st8" d="M777.5,867.7h25c9.9,0,18,8.1,18,18v5c0,12.7-10.3,23-23,23h-20.3c-17.9,0-32.4-14.5-32.4-32.4v-8.9v-4.7
				v-1.9c0-1.4,1.3-2.5,2.7-2.1C757.3,866.4,767.4,867.7,777.5,867.7"/>
		</g>
		<path class="st10" d="M807.5,833.4c10.5,0,19,8.5,19,19c0,7.9-4.7,14.8-12,17.7l-5.3,2.1l3.8,4.3c2.3,2.6,3.5,5.9,3.5,9.3v5
			c0,10.5-8.5,19-19,19 M748.8,868.2c9.4,2.3,19,3.5,28.7,3.5"/>
		<path class="st11" d="M833.1,861.1h4.9"/>
	</g>
	<g>
		<rect x="900.1" y="904.4" class="st4" width="10" height="67.2"/>
		<g>
			<circle class="st5" cx="905.1" cy="871.5" r="42.2"/>
			<path class="st6" d="M905.1,839.4c17.7,0,32.2,14.4,32.2,32.2s-14.4,32.2-32.2,32.2c-17.7,0-32.2-14.4-32.2-32.2
				S887.4,839.4,905.1,839.4"/>
			<path class="st5" d="M905.1,849.4c12.2,0,22.2,9.9,22.2,22.2c0,12.2-9.9,22.2-22.2,22.2c-12.2,0-22.2-9.9-22.2-22.2
				C882.9,859.3,892.9,849.4,905.1,849.4"/>
			<path class="st6" d="M905.1,859.4c6.7,0,12.2,5.5,12.2,12.2s-5.5,12.2-12.2,12.2s-12.2-5.5-12.2-12.2
				C892.9,864.8,898.4,859.4,905.1,859.4"/>
		</g>
	</g>
	<g>
		<g>
			<path class="st7" d="M1085.7,857.1c1.5,0,2.5,1.4,2.1,2.8c-1.7,5.3-6.7,9.2-12.6,9.2h-10.9v-12H1085.7z"/>
			<rect x="1022.5" y="904.4" class="st4" width="10" height="67.2"/>
			<path class="st8" d="M1029.4,852.4c0,12.7,10.3,23,23,23s23-10.3,23-23s-10.3-23-23-23C1039.7,829.4,1029.4,839.6,1029.4,852.4"
				/>
			<path class="st9" d="M1052.4,852.4c0,2.6,2.1,4.7,4.7,4.7s4.7-2.1,4.7-4.7c0-2.6-2.1-4.7-4.7-4.7
				C1054.5,847.6,1052.4,849.7,1052.4,852.4"/>
			<path class="st8" d="M1022.4,867.7h25c9.9,0,18,8.1,18,18v5c0,12.7-10.3,23-23,23h-20.3c-17.9,0-32.4-14.5-32.4-32.4v-8.9v-4.7
				v-1.9c0-1.4,1.3-2.5,2.7-2.1C1002.2,866.4,1012.3,867.7,1022.4,867.7"/>
		</g>
		<path class="st10" d="M1052.4,833.4c10.5,0,19,8.5,19,19c0,7.9-4.7,14.8-12,17.7l-5.3,2.1l3.8,4.3c2.3,2.6,3.5,5.9,3.5,9.3v5
			c0,10.5-8.5,19-19,19 M993.7,868.2c9.4,2.3,19,3.5,28.7,3.5"/>
		<path class="st11" d="M1077.9,861.1h4.9"/>
	</g>
</g>
<rect x="1023.5" y="252.7" class="st12" width="10" height="67.2"/>
<rect x="1023.5" y="495.8" class="st12" width="10" height="67.2"/>
<rect x="901.1" y="495.8" class="st12" width="10" height="67.2"/>
<rect x="778.7" y="495.8" class="st12" width="10" height="67.2"/>
<rect x="656.2" y="495.8" class="st12" width="10" height="67.2"/>
<rect x="533.8" y="495.8" class="st12" width="10" height="67.2"/>
<rect x="411.3" y="495.8" class="st12" width="10" height="67.2"/>
<rect x="288.9" y="495.8" class="st12" width="10" height="67.2"/>
<path class="st17" d="M472.5,583h255.1"/>
</svg>
