<?xml version="1.0" encoding="utf-8"?>
<!-- Generator: Adobe Illustrator 21.1.0, SVG Export Plug-In . SVG Version: 6.00 Build 0)  -->
<svg version="1.1" id="Capa_1" xmlns="http://www.w3.org/2000/svg" xmlns:xlink="http://www.w3.org/1999/xlink" x="0px" y="0px"
	 width="106px" height="160px" viewBox="0 0 106 160" style="enable-background:new 0 0 106 160;" xml:space="preserve">
<style type="text/css">
	.st0{opacity:0.14;}
	.st1{fill:#FF5720;}
	.st2{fill:#FFFFFF;}
	.st3{fill:#FCAE00;}
	.st4{fill:#3C3C3B;}
	
		.st5{opacity:0.15;fill:none;stroke:#FFFFFF;stroke-width:8;stroke-linecap:round;stroke-linejoin:round;stroke-miterlimit:10;enable-background:new    ;}
	
		.st6{opacity:0.1;fill:none;stroke:#FFFFFF;stroke-width:8;stroke-linecap:round;stroke-linejoin:round;stroke-miterlimit:10;enable-background:new    ;}
	.st7{fill:#ECECEC;}
	.st8{fill:#D2131B;}
</style>
<ellipse class="st0" cx="43" cy="152.3" rx="37.9" ry="4.7"/>
<g>
	<g>
		<path class="st1" d="M101.1,37.1c1.5,0,2.5,1.4,2.1,2.8c-1.7,5.3-6.7,9.2-12.6,9.2H79.7v-12H101.1z"/>
		<rect x="37.9" y="84.4" class="st2" width="10" height="67.2"/>
		<path class="st3" d="M44.7,32.4c0,12.7,10.3,23,23,23s23-10.3,23-23s-10.3-23-23-23C55,9.4,44.7,19.6,44.7,32.4"/>
		<path class="st4" d="M67.7,32.4c0,2.6,2.1,4.7,4.7,4.7s4.7-2.1,4.7-4.7s-2.1-4.7-4.7-4.7C69.8,27.6,67.7,29.7,67.7,32.4"/>
		<path class="st3" d="M37.8,47.7h25c9.9,0,18,8.1,18,18v5c0,12.7-10.3,23-23,23H37.5c-17.9,0-32.4-14.5-32.4-32.4v-8.9v-4.7v-1.9
			c0-1.4,1.3-2.5,2.7-2.1C17.6,46.4,27.6,47.7,37.8,47.7"/>
	</g>
	<path class="st5" d="M67.7,13.4c10.5,0,19,8.5,19,19c0,7.9-4.7,14.8-12,17.7l-5.3,2.1l3.8,4.3c2.3,2.6,3.5,5.9,3.5,9.3v5
		c0,10.5-8.5,19-19,19 M9.1,48.2c9.4,2.3,19,3.5,28.7,3.5"/>
	<path class="st6" d="M93.3,41.1h4.9"/>
</g>
<g>
	<rect x="295.3" y="84.4" class="st2" width="10" height="67.2"/>
	<g>
		<circle class="st7" cx="300.3" cy="51.5" r="42.2"/>
		<path class="st8" d="M300.3,19.4c17.7,0,32.2,14.4,32.2,32.2s-14.4,32.2-32.2,32.2c-17.7,0-32.2-14.4-32.2-32.2
			S282.6,19.4,300.3,19.4"/>
		<path class="st7" d="M300.3,29.4c12.2,0,22.2,9.9,22.2,22.2c0,12.2-9.9,22.2-22.2,22.2c-12.2,0-22.2-9.9-22.2-22.2
			C278.2,39.3,288.1,29.4,300.3,29.4"/>
		<path class="st8" d="M300.3,39.4c6.7,0,12.2,5.5,12.2,12.2s-5.5,12.2-12.2,12.2s-12.2-5.5-12.2-12.2S293.6,39.4,300.3,39.4"/>
	</g>
</g>
<g>
	<g>
		<path class="st1" d="M480.9,37.1c1.5,0,2.5,1.4,2.1,2.8c-1.7,5.3-6.7,9.2-12.6,9.2h-10.9v-12H480.9z"/>
		<rect x="417.8" y="84.4" class="st2" width="10" height="67.2"/>
		<path class="st3" d="M424.6,32.4c0,12.7,10.3,23,23,23s23-10.3,23-23s-10.3-23-23-23C434.9,9.4,424.6,19.6,424.6,32.4"/>
		<path class="st4" d="M447.6,32.4c0,2.6,2.1,4.7,4.7,4.7s4.7-2.1,4.7-4.7s-2.1-4.7-4.7-4.7C449.7,27.6,447.6,29.7,447.6,32.4"/>
		<path class="st3" d="M417.6,47.7h25c9.9,0,18,8.1,18,18v5c0,12.7-10.3,23-23,23h-20.3c-17.9,0-32.4-14.5-32.4-32.4v-8.9v-4.7v-1.9
			c0-1.4,1.3-2.5,2.7-2.1C397.4,46.4,407.5,47.7,417.6,47.7"/>
	</g>
	<path class="st5" d="M447.6,13.4c10.5,0,19,8.5,19,19c0,7.9-4.7,14.8-12,17.7l-5.3,2.1l3.8,4.3c2.3,2.6,3.5,5.9,3.5,9.3v5
		c0,10.5-8.5,19-19,19 M388.9,48.2c9.4,2.3,19,3.5,28.7,3.5"/>
	<path class="st6" d="M473.2,41.1h4.9"/>
</g>
<g>
	<rect x="540.2" y="84.4" class="st2" width="10" height="67.2"/>
	<g>
		<circle class="st7" cx="545.2" cy="51.5" r="42.2"/>
		<path class="st8" d="M545.2,19.4c17.7,0,32.2,14.4,32.2,32.2S563,83.7,545.2,83.7c-17.7,0-32.2-14.4-32.2-32.2
			S527.5,19.4,545.2,19.4"/>
		<path class="st7" d="M545.2,29.4c12.2,0,22.2,9.9,22.2,22.2c0,12.2-9.9,22.2-22.2,22.2c-12.2,0-22.2-9.9-22.2-22.2
			C523.1,39.3,533,29.4,545.2,29.4"/>
		<path class="st8" d="M545.2,39.4c6.7,0,12.2,5.5,12.2,12.2s-5.5,12.2-12.2,12.2S533,58.3,533,51.6S538.5,39.4,545.2,39.4"/>
	</g>
</g>
<g>
	<g>
		<path class="st1" d="M725.8,37.1c1.5,0,2.5,1.4,2.1,2.8c-1.7,5.3-6.7,9.2-12.6,9.2h-10.9v-12H725.8z"/>
		<rect x="662.7" y="84.4" class="st2" width="10" height="67.2"/>
		<path class="st3" d="M669.5,32.4c0,12.7,10.3,23,23,23s23-10.3,23-23s-10.3-23-23-23C679.8,9.4,669.5,19.6,669.5,32.4"/>
		<path class="st4" d="M692.5,32.4c0,2.6,2.1,4.7,4.7,4.7c2.6,0,4.7-2.1,4.7-4.7s-2.1-4.7-4.7-4.7C694.6,27.6,692.5,29.7,692.5,32.4
			"/>
		<path class="st3" d="M662.5,47.7h25c9.9,0,18,8.1,18,18v5c0,12.7-10.3,23-23,23h-20.3c-17.9,0-32.4-14.5-32.4-32.4v-8.9v-4.7v-1.9
			c0-1.4,1.3-2.5,2.7-2.1C642.3,46.4,652.4,47.7,662.5,47.7"/>
	</g>
	<path class="st5" d="M692.5,13.4c10.5,0,19,8.5,19,19c0,7.9-4.7,14.8-12,17.7l-5.3,2.1l3.8,4.3c2.3,2.6,3.5,5.9,3.5,9.3v5
		c0,10.5-8.5,19-19,19 M633.8,48.2c9.4,2.3,19,3.5,28.7,3.5"/>
	<path class="st6" d="M718.1,41.1h4.9"/>
</g>
<g>
	<rect x="785.1" y="84.4" class="st2" width="10" height="67.2"/>
	<g>
		<circle class="st7" cx="790.1" cy="51.5" r="42.2"/>
		<path class="st8" d="M790.1,19.4c17.7,0,32.2,14.4,32.2,32.2s-14.4,32.2-32.2,32.2c-17.7,0-32.2-14.4-32.2-32.2
			S772.4,19.4,790.1,19.4"/>
		<path class="st7" d="M790.1,29.4c12.2,0,22.2,9.9,22.2,22.2c0,12.2-9.9,22.2-22.2,22.2c-12.2,0-22.2-9.9-22.2-22.2
			C767.9,39.3,777.9,29.4,790.1,29.4"/>
		<path class="st8" d="M790.1,39.4c6.7,0,12.2,5.5,12.2,12.2s-5.5,12.2-12.2,12.2s-12.2-5.5-12.2-12.2S783.4,39.4,790.1,39.4"/>
	</g>
</g>
<g>
	<g>
		<path class="st1" d="M970.7,37.1c1.5,0,2.5,1.4,2.1,2.8c-1.7,5.3-6.7,9.2-12.6,9.2h-10.9v-12H970.7z"/>
		<rect x="907.5" y="84.4" class="st2" width="10" height="67.2"/>
		<path class="st3" d="M914.4,32.4c0,12.7,10.3,23,23,23s23-10.3,23-23s-10.3-23-23-23C924.7,9.4,914.4,19.6,914.4,32.4"/>
		<path class="st4" d="M937.4,32.4c0,2.6,2.1,4.7,4.7,4.7c2.6,0,4.7-2.1,4.7-4.7s-2.1-4.7-4.7-4.7C939.5,27.6,937.4,29.7,937.4,32.4
			"/>
		<path class="st3" d="M907.4,47.7h25c9.9,0,18,8.1,18,18v5c0,12.7-10.3,23-23,23h-20.3c-17.9,0-32.4-14.5-32.4-32.4v-8.9v-4.7v-1.9
			c0-1.4,1.3-2.5,2.7-2.1C887.2,46.4,897.3,47.7,907.4,47.7"/>
	</g>
	<path class="st5" d="M937.4,13.4c10.5,0,19,8.5,19,19c0,7.9-4.7,14.8-12,17.7l-5.3,2.1l3.8,4.3c2.3,2.6,3.5,5.9,3.5,9.3v5
		c0,10.5-8.5,19-19,19 M878.7,48.2c9.4,2.3,19,3.5,28.7,3.5"/>
	<path class="st6" d="M962.9,41.1h4.9"/>
</g>
</svg>
