<?xml version="1.0" encoding="utf-8"?>
<!-- Generator: Adobe Illustrator 21.1.0, SVG Export Plug-In . SVG Version: 6.00 Build 0)  -->
<svg version="1.1" id="Capa_1" xmlns="http://www.w3.org/2000/svg" xmlns:xlink="http://www.w3.org/1999/xlink" x="0px" y="0px"
	 width="1366px" height="222px" viewBox="0 0 1366 222" style="enable-background:new 0 0 1366 222;" xml:space="preserve">
<style type="text/css">
	.st0{opacity:0.14;}
	.st1{opacity:0.39;}
	.st2{fill:#FE2020;}
	.st3{fill:#FFFFFF;}
	.st4{fill:#F5F5F5;}
	.st5{fill:#D2131B;}
</style>
<g class="st0">
	<path d="M235.5,152.5v29.7c0,13,10.5,23.5,23.5,23.5c13,0,23.5-10.5,23.5-23.5v-29.7C282.5,152.5,235.5,152.5,235.5,152.5z"/>
	<path d="M282.6,152.5v29.7c0,13,10.5,23.5,23.5,23.5c13,0,23.5-10.5,23.5-23.5v-29.7C329.7,152.5,282.6,152.5,282.6,152.5z"/>
	<path d="M329.7,152.5v29.7c0,13,10.5,23.5,23.5,23.5s23.5-10.5,23.5-23.5v-29.7C376.8,152.5,329.7,152.5,329.7,152.5z"/>
	<path d="M376.8,152.5v29.7c0,13,10.5,23.5,23.5,23.5s23.5-10.5,23.5-23.5v-29.7C423.9,152.5,376.8,152.5,376.8,152.5z"/>
	<path d="M424,152.5v29.7c0,13,10.5,23.5,23.5,23.5c13,0,23.5-10.5,23.5-23.5v-29.7C471.1,152.5,424,152.5,424,152.5z"/>
	<path d="M471.1,152.5v29.7c0,13,10.5,23.5,23.5,23.5c13,0,23.5-10.5,23.5-23.5v-29.7C518.1,152.5,471.1,152.5,471.1,152.5z"/>
	<path d="M518.2,152.5v29.7c0,13,10.5,23.5,23.5,23.5c13,0,23.5-10.5,23.5-23.5v-29.7C565.3,152.5,518.2,152.5,518.2,152.5z"/>
	<path d="M565.3,152.5v29.7c0,13,10.5,23.5,23.5,23.5s23.5-10.5,23.5-23.5v-29.7C612.4,152.5,565.3,152.5,565.3,152.5z"/>
	<path d="M612.4,152.5v29.7c0,13,10.5,23.5,23.5,23.5c13,0,23.5-10.5,23.5-23.5v-29.7C659.5,152.5,612.4,152.5,612.4,152.5z"/>
	<path d="M659.6,152.5v29.7c0,13,10.5,23.5,23.5,23.5c13,0,23.5-10.5,23.5-23.5v-29.7C706.7,152.5,659.6,152.5,659.6,152.5z"/>
	<path d="M706.7,152.5v29.7c0,13,10.5,23.5,23.5,23.5s23.5-10.5,23.5-23.5v-29.7C753.7,152.5,706.7,152.5,706.7,152.5z"/>
	<path d="M753.8,152.5v29.7c0,13,10.5,23.5,23.5,23.5s23.5-10.5,23.5-23.5v-29.7C800.9,152.5,753.8,152.5,753.8,152.5z"/>
	<path d="M800.9,152.5v29.7c0,13,10.5,23.5,23.5,23.5c13,0,23.5-10.5,23.5-23.5v-29.7C848,152.5,800.9,152.5,800.9,152.5z"/>
	<path d="M848,152.5v29.7c0,13,10.5,23.5,23.5,23.5c13,0,23.5-10.5,23.5-23.5v-29.7C895.1,152.5,848,152.5,848,152.5z"/>
	<path d="M895.2,152.5v29.7c0,13,10.5,23.5,23.5,23.5c13,0,23.5-10.5,23.5-23.5v-29.7C942.3,152.5,895.2,152.5,895.2,152.5z"/>
	<path d="M942.3,152.5v29.7c0,13,10.5,23.5,23.5,23.5s23.5-10.5,23.5-23.5v-29.7C989.4,152.5,942.3,152.5,942.3,152.5z"/>
	<path d="M989.4,152.5v29.7c0,13,10.5,23.5,23.5,23.5c13,0,23.5-10.5,23.5-23.5v-29.7C1036.5,152.5,989.4,152.5,989.4,152.5z"/>
	<path d="M1036.5,152.5v29.7c0,13,10.5,23.5,23.5,23.5c13,0,23.5-10.5,23.5-23.5v-29.7C1083.6,152.5,1036.5,152.5,1036.5,152.5z"/>
	<path d="M1083.7,152.5v29.7c0,13,10.5,23.5,23.5,23.5s23.5-10.5,23.5-23.5v-29.7C1130.8,152.5,1083.7,152.5,1083.7,152.5z"/>
	<path d="M1130.8,152.5v29.7c0,13,10.5,23.5,23.5,23.5c13,0,23.5-10.5,23.5-23.5v-29.7C1177.9,152.5,1130.8,152.5,1130.8,152.5z"/>
	<path d="M1225.1,152.5v29.7c0,13,10.5,23.5,23.5,23.5s23.5-10.5,23.5-23.5v-29.7C1272.1,152.5,1225.1,152.5,1225.1,152.5z"/>
	<path d="M1319.3,152.5v29.7c0,13,10.5,23.5,23.5,23.5s23.5-10.5,23.5-23.5v-29.7C1366.4,152.5,1319.3,152.5,1319.3,152.5z"/>
	<path d="M1177.9,152.5v29.7c0,13,10.5,23.5,23.5,23.5s23.5-10.5,23.5-23.5v-29.7C1225,152.5,1177.9,152.5,1177.9,152.5z"/>
	<path d="M1272.1,152.5v29.7c0,13,10.5,23.5,23.5,23.5c13,0,23.5-10.5,23.5-23.5v-29.7C1319.2,152.5,1272.1,152.5,1272.1,152.5z"/>
	<path d="M235.5,152.5v29.7c0,13-10.5,23.5-23.5,23.5c-13,0-23.5-10.5-23.5-23.5v-29.7C188.4,152.5,235.5,152.5,235.5,152.5z"/>
	<path d="M141.2,152.5v29.7c0,13-10.5,23.5-23.5,23.5s-23.5-10.5-23.5-23.5v-29.7C94.1,152.5,141.2,152.5,141.2,152.5z"/>
	<path d="M46.9,152.5v29.7c0,13-10.5,23.5-23.5,23.5s-23.5-10.5-23.5-23.5v-29.7C-0.1,152.5,46.9,152.5,46.9,152.5z"/>
	<path d="M188.3,152.5v29.7c0,13-10.5,23.5-23.5,23.5c-13,0-23.5-10.5-23.5-23.5v-29.7C141.2,152.5,188.3,152.5,188.3,152.5z"/>
	<path d="M94.1,152.5v29.7c0,13-10.5,23.5-23.5,23.5S47,195.2,47,182.2v-29.7C47,152.5,94.1,152.5,94.1,152.5z"/>
</g>
<polygon class="st1" points="282.6,159.5 329.7,159.5 683.1,26.3 "/>
<polygon class="st1" points="376.8,159.5 424,159.5 683.1,26.3 "/>
<polygon class="st1" points="471.1,159.5 518.2,159.5 683.1,26.3 "/>
<polygon class="st1" points="565.3,159.5 612.4,159.5 683.1,26.3 "/>
<polygon class="st1" points="683.1,26.3 659.6,159.5 706.7,159.5 "/>
<polygon class="st1" points="683.1,26.3 753.8,159.5 800.9,159.5 "/>
<polygon class="st1" points="683.1,26.3 848,159.5 895.2,159.5 "/>
<polygon class="st1" points="683.1,26.3 942.3,159.5 989.4,159.5 "/>
<polygon class="st1" points="683.1,26.3 1036.5,159.5 1083.7,159.5 "/>
<polyline class="st1" points="1177.9,159.5 683.1,26.3 1130.8,159.5 "/>
<polygon class="st1" points="683.1,26.3 1225.1,159.5 1272.1,159.5 "/>
<polygon class="st1" points="683.1,26.3 1319.3,159.5 1366.4,159.5 "/>
<polyline class="st1" points="188.3,159.5 683.1,26.3 235.5,159.5 "/>
<polygon class="st1" points="683.1,26.3 141.2,159.5 94.1,159.5 "/>
<polygon class="st1" points="683.1,26.3 46.9,159.5 -0.1,159.5 "/>
<g class="st1">
	<polygon points="235.5,160 282.6,160 683.1,26.8 	"/>
	<polygon points="329.7,160 376.8,160 683.1,26.8 	"/>
	<polygon points="424,160 471.1,160 683.1,26.8 	"/>
	<polygon points="518.2,160 565.3,160 683.1,26.8 	"/>
	<polygon points="612.4,160 659.6,160 683.1,26.8 	"/>
	<polygon points="683.1,26.8 706.7,160 753.8,160 	"/>
	<polygon points="683.1,26.8 800.9,160 848,160 	"/>
	<polygon points="682.1,27.3 894.2,160.5 941.3,160.5 	"/>
	<polygon points="682.1,27.3 988.4,160.5 1035.5,160.5 	"/>
	<polygon points="682.1,27.3 1082.7,160.5 1129.8,160.5 	"/>
	<polygon points="682.1,27.3 1176.9,160.5 1224.1,160.5 	"/>
	<polygon points="682.1,27.3 1271.1,160.5 1318.3,160.5 	"/>
	<polygon points="683.1,26.8 188.3,160 141.2,160 	"/>
	<polygon points="683.1,26.8 94.1,160 46.9,160 	"/>
</g>
<g>
	<path class="st2" d="M327.5,424.5v29.7c0,13,10.5,23.5,23.5,23.5c13,0,23.5-10.5,23.5-23.5v-29.7
		C374.5,424.5,327.5,424.5,327.5,424.5z"/>
	<path class="st3" d="M374.6,424.5v29.7c0,13,10.5,23.5,23.5,23.5c13,0,23.5-10.5,23.5-23.5v-29.7
		C421.7,424.5,374.6,424.5,374.6,424.5z"/>
	<path class="st2" d="M421.7,424.5v29.7c0,13,10.5,23.5,23.5,23.5s23.5-10.5,23.5-23.5v-29.7C468.8,424.5,421.7,424.5,421.7,424.5z"
		/>
	<path class="st3" d="M468.8,424.5v29.7c0,13,10.5,23.5,23.5,23.5s23.5-10.5,23.5-23.5v-29.7C515.9,424.5,468.8,424.5,468.8,424.5z"
		/>
	<path class="st2" d="M516,424.5v29.7c0,13,10.5,23.5,23.5,23.5c13,0,23.5-10.5,23.5-23.5v-29.7C563.1,424.5,516,424.5,516,424.5z"
		/>
	<path class="st3" d="M563.1,424.5v29.7c0,13,10.5,23.5,23.5,23.5c13,0,23.5-10.5,23.5-23.5v-29.7
		C610.1,424.5,563.1,424.5,563.1,424.5z"/>
	<path class="st2" d="M610.2,424.5v29.7c0,13,10.5,23.5,23.5,23.5c13,0,23.5-10.5,23.5-23.5v-29.7
		C657.3,424.5,610.2,424.5,610.2,424.5z"/>
	<path class="st3" d="M657.3,424.5v29.7c0,13,10.5,23.5,23.5,23.5s23.5-10.5,23.5-23.5v-29.7C704.4,424.5,657.3,424.5,657.3,424.5z"
		/>
	<path class="st2" d="M704.4,424.5v29.7c0,13,10.5,23.5,23.5,23.5c13,0,23.5-10.5,23.5-23.5v-29.7
		C751.5,424.5,704.4,424.5,704.4,424.5z"/>
	<path class="st3" d="M751.6,424.5v29.7c0,13,10.5,23.5,23.5,23.5c13,0,23.5-10.5,23.5-23.5v-29.7
		C798.7,424.5,751.6,424.5,751.6,424.5z"/>
	<path class="st2" d="M798.7,424.5v29.7c0,13,10.5,23.5,23.5,23.5s23.5-10.5,23.5-23.5v-29.7C845.7,424.5,798.7,424.5,798.7,424.5z"
		/>
	<path class="st3" d="M845.8,424.5v29.7c0,13,10.5,23.5,23.5,23.5s23.5-10.5,23.5-23.5v-29.7C892.9,424.5,845.8,424.5,845.8,424.5z"
		/>
	<path class="st2" d="M892.9,424.5v29.7c0,13,10.5,23.5,23.5,23.5c13,0,23.5-10.5,23.5-23.5v-29.7
		C940,424.5,892.9,424.5,892.9,424.5z"/>
	<path class="st3" d="M940,424.5v29.7c0,13,10.5,23.5,23.5,23.5c13,0,23.5-10.5,23.5-23.5v-29.7C987.1,424.5,940,424.5,940,424.5z"
		/>
	<path class="st2" d="M987.2,424.5v29.7c0,13,10.5,23.5,23.5,23.5c13,0,23.5-10.5,23.5-23.5v-29.7
		C1034.3,424.5,987.2,424.5,987.2,424.5z"/>
	<path class="st3" d="M1034.3,424.5v29.7c0,13,10.5,23.5,23.5,23.5c13,0,23.5-10.5,23.5-23.5v-29.7
		C1081.4,424.5,1034.3,424.5,1034.3,424.5z"/>
	<path class="st2" d="M1081.4,424.5v29.7c0,13,10.5,23.5,23.5,23.5s23.5-10.5,23.5-23.5v-29.7
		C1128.5,424.5,1081.4,424.5,1081.4,424.5z"/>
	<path class="st3" d="M1128.5,424.5v29.7c0,13,10.5,23.5,23.5,23.5c13,0,23.5-10.5,23.5-23.5v-29.7
		C1175.6,424.5,1128.5,424.5,1128.5,424.5z"/>
	<path class="st2" d="M1175.7,424.5v29.7c0,13,10.5,23.5,23.5,23.5s23.5-10.5,23.5-23.5v-29.7
		C1222.8,424.5,1175.7,424.5,1175.7,424.5z"/>
	<path class="st3" d="M1222.8,424.5v29.7c0,13,10.5,23.5,23.5,23.5c13,0,23.5-10.5,23.5-23.5v-29.7
		C1269.9,424.5,1222.8,424.5,1222.8,424.5z"/>
	<path class="st3" d="M1317.1,424.5v29.7c0,13,10.5,23.5,23.5,23.5s23.5-10.5,23.5-23.5v-29.7
		C1364.1,424.5,1317.1,424.5,1317.1,424.5z"/>
	<path class="st3" d="M1411.3,424.5v29.7c0,13,10.5,23.5,23.5,23.5s23.5-10.5,23.5-23.5v-29.7
		C1458.4,424.5,1411.3,424.5,1411.3,424.5z"/>
	<path class="st2" d="M1269.9,424.5v29.7c0,13,10.5,23.5,23.5,23.5s23.5-10.5,23.5-23.5v-29.7C1317,424.5,1269.9,424.5,1269.9,424.5
		z"/>
	<path class="st2" d="M1364.1,424.5v29.7c0,13,10.5,23.5,23.5,23.5c13,0,23.5-10.5,23.5-23.5v-29.7
		C1411.2,424.5,1364.1,424.5,1364.1,424.5z"/>
	<path class="st3" d="M327.5,424.5v29.7c0,13-10.5,23.5-23.5,23.5s-23.5-10.5-23.5-23.5v-29.7C280.4,424.5,327.5,424.5,327.5,424.5z
		"/>
	<path class="st3" d="M233.2,424.5v29.7c0,13-10.5,23.5-23.5,23.5c-13,0-23.5-10.5-23.5-23.5v-29.7
		C186.1,424.5,233.2,424.5,233.2,424.5z"/>
	<path class="st3" d="M138.9,424.5v29.7c0,13-10.5,23.5-23.5,23.5s-23.5-10.5-23.5-23.5v-29.7C91.9,424.5,138.9,424.5,138.9,424.5z"
		/>
	<path class="st2" d="M280.3,424.5v29.7c0,13-10.5,23.5-23.5,23.5c-13,0-23.5-10.5-23.5-23.5v-29.7
		C233.2,424.5,280.3,424.5,280.3,424.5z"/>
	<path class="st2" d="M186.1,424.5v29.7c0,13-10.5,23.5-23.5,23.5c-13,0-23.5-10.5-23.5-23.5v-29.7
		C139,424.5,186.1,424.5,186.1,424.5z"/>
</g>
<polygon class="st4" points="374.6,424.5 421.7,424.5 775.1,291.3 "/>
<polygon class="st4" points="468.8,424.5 516,424.5 775.1,291.3 "/>
<polygon class="st4" points="563.1,424.5 610.2,424.5 775.1,291.3 "/>
<polygon class="st4" points="657.3,424.5 704.4,424.5 775.1,291.3 "/>
<polygon class="st4" points="775.1,291.3 751.6,424.5 798.7,424.5 "/>
<polygon class="st4" points="775.1,291.3 845.8,424.5 892.9,424.5 "/>
<polygon class="st4" points="775.1,291.3 940,424.5 987.2,424.5 "/>
<polygon class="st4" points="775.1,291.3 1034.3,424.5 1081.4,424.5 "/>
<polygon class="st4" points="775.1,291.3 1128.5,424.5 1175.7,424.5 "/>
<polyline class="st4" points="1269.9,424.5 775.1,291.3 1222.8,424.5 "/>
<polygon class="st4" points="775.1,291.3 1317.1,424.5 1364.1,424.5 "/>
<polygon class="st4" points="775.1,291.3 1411.3,424.5 1458.4,424.5 "/>
<polyline class="st4" points="280.3,424.5 775.1,291.3 327.5,424.5 "/>
<polygon class="st4" points="775.1,291.3 233.2,424.5 186.1,424.5 "/>
<polygon class="st4" points="775.1,291.3 138.9,424.5 91.9,424.5 "/>
<g>
	<polygon class="st5" points="327.5,425 374.6,425 775.1,291.8 	"/>
	<polygon class="st5" points="421.7,425 468.8,425 775.1,291.8 	"/>
	<polygon class="st5" points="516,425 563.1,425 775.1,291.8 	"/>
	<polygon class="st5" points="610.2,425 657.3,425 775.1,291.8 	"/>
	<polygon class="st5" points="704.4,425 751.6,425 775.1,291.8 	"/>
	<polygon class="st5" points="775.1,291.8 798.7,425 845.8,425 	"/>
	<polygon class="st5" points="775.1,291.8 892.9,425 940,425 	"/>
	<polygon class="st5" points="774.1,292.3 986.2,425.5 1033.3,425.5 	"/>
	<polygon class="st5" points="774.1,292.3 1080.4,425.5 1127.5,425.5 	"/>
	<polygon class="st5" points="774.1,292.3 1174.7,425.5 1221.8,425.5 	"/>
	<polygon class="st5" points="774.1,292.3 1268.9,425.5 1316.1,425.5 	"/>
	<polygon class="st5" points="774.1,292.3 1363.1,425.5 1410.3,425.5 	"/>
	<polygon class="st5" points="775.1,291.8 280.3,425 233.2,425 	"/>
	<polygon class="st5" points="775.1,291.8 186.1,425 138.9,425 	"/>
</g>
<g>
	<path class="st2" d="M235.5,133.5v29.7c0,13,10.5,23.5,23.5,23.5c13,0,23.5-10.5,23.5-23.5v-29.7
		C282.5,133.5,235.5,133.5,235.5,133.5z"/>
	<path class="st3" d="M282.6,133.5v29.7c0,13,10.5,23.5,23.5,23.5c13,0,23.5-10.5,23.5-23.5v-29.7
		C329.7,133.5,282.6,133.5,282.6,133.5z"/>
	<path class="st2" d="M329.7,133.5v29.7c0,13,10.5,23.5,23.5,23.5s23.5-10.5,23.5-23.5v-29.7C376.8,133.5,329.7,133.5,329.7,133.5z"
		/>
	<path class="st3" d="M376.8,133.5v29.7c0,13,10.5,23.5,23.5,23.5s23.5-10.5,23.5-23.5v-29.7C423.9,133.5,376.8,133.5,376.8,133.5z"
		/>
	<path class="st2" d="M424,133.5v29.7c0,13,10.5,23.5,23.5,23.5c13,0,23.5-10.5,23.5-23.5v-29.7C471.1,133.5,424,133.5,424,133.5z"
		/>
	<path class="st3" d="M471.1,133.5v29.7c0,13,10.5,23.5,23.5,23.5c13,0,23.5-10.5,23.5-23.5v-29.7
		C518.1,133.5,471.1,133.5,471.1,133.5z"/>
	<path class="st2" d="M518.2,133.5v29.7c0,13,10.5,23.5,23.5,23.5c13,0,23.5-10.5,23.5-23.5v-29.7
		C565.3,133.5,518.2,133.5,518.2,133.5z"/>
	<path class="st3" d="M565.3,133.5v29.7c0,13,10.5,23.5,23.5,23.5s23.5-10.5,23.5-23.5v-29.7C612.4,133.5,565.3,133.5,565.3,133.5z"
		/>
	<path class="st2" d="M612.4,133.5v29.7c0,13,10.5,23.5,23.5,23.5c13,0,23.5-10.5,23.5-23.5v-29.7
		C659.5,133.5,612.4,133.5,612.4,133.5z"/>
	<path class="st3" d="M659.6,133.5v29.7c0,13,10.5,23.5,23.5,23.5c13,0,23.5-10.5,23.5-23.5v-29.7
		C706.7,133.5,659.6,133.5,659.6,133.5z"/>
	<path class="st2" d="M706.7,133.5v29.7c0,13,10.5,23.5,23.5,23.5s23.5-10.5,23.5-23.5v-29.7C753.7,133.5,706.7,133.5,706.7,133.5z"
		/>
	<path class="st3" d="M753.8,133.5v29.7c0,13,10.5,23.5,23.5,23.5s23.5-10.5,23.5-23.5v-29.7C800.9,133.5,753.8,133.5,753.8,133.5z"
		/>
	<path class="st2" d="M800.9,133.5v29.7c0,13,10.5,23.5,23.5,23.5c13,0,23.5-10.5,23.5-23.5v-29.7
		C848,133.5,800.9,133.5,800.9,133.5z"/>
	<path class="st3" d="M848,133.5v29.7c0,13,10.5,23.5,23.5,23.5c13,0,23.5-10.5,23.5-23.5v-29.7C895.1,133.5,848,133.5,848,133.5z"
		/>
	<path class="st2" d="M895.2,133.5v29.7c0,13,10.5,23.5,23.5,23.5c13,0,23.5-10.5,23.5-23.5v-29.7
		C942.3,133.5,895.2,133.5,895.2,133.5z"/>
	<path class="st3" d="M942.3,133.5v29.7c0,13,10.5,23.5,23.5,23.5s23.5-10.5,23.5-23.5v-29.7C989.4,133.5,942.3,133.5,942.3,133.5z"
		/>
	<path class="st2" d="M989.4,133.5v29.7c0,13,10.5,23.5,23.5,23.5c13,0,23.5-10.5,23.5-23.5v-29.7
		C1036.5,133.5,989.4,133.5,989.4,133.5z"/>
	<path class="st3" d="M1036.5,133.5v29.7c0,13,10.5,23.5,23.5,23.5c13,0,23.5-10.5,23.5-23.5v-29.7
		C1083.6,133.5,1036.5,133.5,1036.5,133.5z"/>
	<path class="st2" d="M1083.7,133.5v29.7c0,13,10.5,23.5,23.5,23.5s23.5-10.5,23.5-23.5v-29.7
		C1130.8,133.5,1083.7,133.5,1083.7,133.5z"/>
	<path class="st3" d="M1130.8,133.5v29.7c0,13,10.5,23.5,23.5,23.5c13,0,23.5-10.5,23.5-23.5v-29.7
		C1177.9,133.5,1130.8,133.5,1130.8,133.5z"/>
	<path class="st3" d="M1225.1,133.5v29.7c0,13,10.5,23.5,23.5,23.5s23.5-10.5,23.5-23.5v-29.7
		C1272.1,133.5,1225.1,133.5,1225.1,133.5z"/>
	<path class="st3" d="M1319.3,133.5v29.7c0,13,10.5,23.5,23.5,23.5s23.5-10.5,23.5-23.5v-29.7
		C1366.4,133.5,1319.3,133.5,1319.3,133.5z"/>
	<path class="st2" d="M1177.9,133.5v29.7c0,13,10.5,23.5,23.5,23.5s23.5-10.5,23.5-23.5v-29.7C1225,133.5,1177.9,133.5,1177.9,133.5
		z"/>
	<path class="st2" d="M1272.1,133.5v29.7c0,13,10.5,23.5,23.5,23.5c13,0,23.5-10.5,23.5-23.5v-29.7
		C1319.2,133.5,1272.1,133.5,1272.1,133.5z"/>
	<path class="st3" d="M235.5,133.5v29.7c0,13-10.5,23.5-23.5,23.5c-13,0-23.5-10.5-23.5-23.5v-29.7
		C188.4,133.5,235.5,133.5,235.5,133.5z"/>
	<path class="st3" d="M141.2,133.5v29.7c0,13-10.5,23.5-23.5,23.5s-23.5-10.5-23.5-23.5v-29.7C94.1,133.5,141.2,133.5,141.2,133.5z"
		/>
	<path class="st3" d="M46.9,133.5v29.7c0,13-10.5,23.5-23.5,23.5s-23.5-10.5-23.5-23.5v-29.7C-0.1,133.5,46.9,133.5,46.9,133.5z"/>
	<path class="st2" d="M188.3,133.5v29.7c0,13-10.5,23.5-23.5,23.5c-13,0-23.5-10.5-23.5-23.5v-29.7
		C141.2,133.5,188.3,133.5,188.3,133.5z"/>
	<path class="st2" d="M94.1,133.5v29.7c0,13-10.5,23.5-23.5,23.5S47,176.2,47,163.2v-29.7C47,133.5,94.1,133.5,94.1,133.5z"/>
</g>
<polygon class="st4" points="282.6,133.5 329.7,133.5 683.1,0.3 "/>
<polygon class="st4" points="376.8,133.5 424,133.5 683.1,0.3 "/>
<polygon class="st4" points="471.1,133.5 518.2,133.5 683.1,0.3 "/>
<polygon class="st4" points="565.3,133.5 612.4,133.5 683.1,0.3 "/>
<polygon class="st4" points="683.1,0.3 659.6,133.5 706.7,133.5 "/>
<polygon class="st4" points="683.1,0.3 753.8,133.5 800.9,133.5 "/>
<polygon class="st4" points="683.1,0.3 848,133.5 895.2,133.5 "/>
<polygon class="st4" points="683.1,0.3 942.3,133.5 989.4,133.5 "/>
<polygon class="st4" points="683.1,0.3 1036.5,133.5 1083.7,133.5 "/>
<polyline class="st4" points="1177.9,133.5 683.1,0.3 1130.8,133.5 "/>
<polygon class="st4" points="683.1,0.3 1225.1,133.5 1272.1,133.5 "/>
<polygon class="st4" points="683.1,0.3 1319.3,133.5 1366.4,133.5 "/>
<polyline class="st4" points="188.3,133.5 683.1,0.3 235.5,133.5 "/>
<polygon class="st4" points="683.1,0.3 141.2,133.5 94.1,133.5 "/>
<polygon class="st4" points="683.1,0.3 46.9,133.5 -0.1,133.5 "/>
<g>
	<polygon class="st5" points="235.5,134 282.6,134 683.1,0.8 	"/>
	<polygon class="st5" points="329.7,134 376.8,134 683.1,0.8 	"/>
	<polygon class="st5" points="424,134 471.1,134 683.1,0.8 	"/>
	<polygon class="st5" points="518.2,134 565.3,134 683.1,0.8 	"/>
	<polygon class="st5" points="612.4,134 659.6,134 683.1,0.8 	"/>
	<polygon class="st5" points="683.1,0.8 706.7,134 753.8,134 	"/>
	<polygon class="st5" points="683.1,0.8 800.9,134 848,134 	"/>
	<polygon class="st5" points="682.1,1.3 894.2,134.5 941.3,134.5 	"/>
	<polygon class="st5" points="682.1,1.3 988.4,134.5 1035.5,134.5 	"/>
	<polygon class="st5" points="682.1,1.3 1082.7,134.5 1129.8,134.5 	"/>
	<polygon class="st5" points="682.1,1.3 1176.9,134.5 1224.1,134.5 	"/>
	<polygon class="st5" points="682.1,1.3 1271.1,134.5 1318.3,134.5 	"/>
	<polygon class="st5" points="683.1,0.8 188.3,134 141.2,134 	"/>
	<polygon class="st5" points="683.1,0.8 94.1,134 46.9,134 	"/>
</g>
</svg>
